<svg width="58" height="58" viewBox="0 0 58 58" fill="none" xmlns="http://www.w3.org/2000/svg">
<path d="M29 5L29.0046 28.9764L38.1845 6.82688L29.0134 28.9801L45.9705 12.0294L29.0199 28.9866L51.1731 19.8155L29.0236 28.9954L53 29L29.0236 29.0046L51.1731 38.1845L29.0199 29.0134L45.9705 45.9705L29.0134 29.0199L38.1845 51.1731L29.0046 29.0236L29 53L28.9954 29.0236L19.8155 51.1731L28.9866 29.0199L12.0294 45.9705L28.9801 29.0134L6.82688 38.1845L28.9764 29.0046L5 29L28.9764 28.9954L6.82688 19.8155L28.9801 28.9866L12.0294 12.0294L28.9866 28.9801L19.8155 6.82688L28.9954 28.9764L29 5Z" stroke="url(#paint0_linear_103_5411)" stroke-width="9.40161" stroke-linejoin="round"/>
<path d="M28.8115 42.9419C27.5035 42.9419 26.3393 42.8111 25.3191 42.5494C24.3249 42.2617 23.4355 41.8954 22.6506 41.4507C21.892 41.0059 21.2379 40.4958 20.6886 39.9203C20.1653 39.3447 19.7337 38.7561 19.3936 38.1544L23.5139 34.2302C23.7494 34.6488 24.0372 35.0674 24.3773 35.486C24.7174 35.9046 25.1098 36.2839 25.5545 36.624C26.0254 36.9379 26.5355 37.1995 27.0849 37.4088C27.6605 37.5919 28.3014 37.6835 29.0078 37.6835C30.1588 37.6835 31.0483 37.4219 31.6762 36.8987C32.3302 36.3755 32.6572 35.6691 32.6572 34.7796C32.6572 33.9163 32.3564 33.2231 31.7547 32.6998C31.153 32.1505 30.4074 31.6796 29.5179 31.2871C28.6284 30.8686 27.6474 30.4631 26.5748 30.0707C25.5283 29.6521 24.5604 29.1419 23.6709 28.5402C22.7814 27.9124 22.0359 27.1406 21.4341 26.225C20.8324 25.2832 20.5316 24.0667 20.5316 22.5755C20.5316 21.3198 20.754 20.208 21.1987 19.24C21.6434 18.272 22.2713 17.4611 23.0823 16.807C23.8933 16.1268 24.8482 15.6167 25.9469 15.2766C27.0718 14.9365 28.3014 14.7665 29.6356 14.7665C30.839 14.7665 31.8985 14.8973 32.8142 15.1589C33.7298 15.4205 34.5277 15.7606 35.2079 16.1792C35.8881 16.5716 36.4506 17.0163 36.8953 17.5134C37.34 17.9843 37.6932 18.4421 37.9548 18.8868L34.0699 22.4578C33.5205 21.6991 32.8927 21.1105 32.1863 20.6919C31.48 20.2472 30.6428 20.0248 29.6749 20.0248C28.7854 20.0248 28.066 20.221 27.5166 20.6135C26.9672 20.9797 26.6925 21.5422 26.6925 22.3008C26.6925 23.0857 26.9934 23.7135 27.5951 24.1844C28.1968 24.6292 28.9554 25.0347 29.8711 25.4009C30.7867 25.741 31.7677 26.0942 32.8142 26.4604C33.8868 26.8267 34.8809 27.3237 35.7965 27.9516C36.7122 28.5795 37.4708 29.3905 38.0725 30.3846C38.6742 31.3525 38.9751 32.6213 38.9751 34.191C38.9751 35.6037 38.7266 36.8594 38.2295 37.9582C37.7324 39.0308 37.0392 39.9464 36.1497 40.7051C35.2602 41.4376 34.1876 42.0001 32.9319 42.3925C31.6762 42.7587 30.3027 42.9419 28.8115 42.9419Z" fill="white"/>
<defs>
<linearGradient id="paint0_linear_103_5411" x1="5" y1="4.99381" x2="60.1307" y2="42.5171" gradientUnits="userSpaceOnUse">
<stop offset="0.5" stop-color="#FA3636"/>
<stop offset="1" stop-color="#F87617"/>
</linearGradient>
</defs>
</svg>
